<svg width="533.85" height="108.001" viewBox="0 0 533.85 108.001" xmlns="http://www.w3.org/2000/svg">
	<g id="svgGroup" stroke-linecap="round" fill-rule="evenodd" font-size="9pt" stroke="#000" stroke-width="0.25mm" fill="none" style="stroke:#000;stroke-width:0.25mm;fill:none">
		<path d="M 14.25 106.201 L 0 106.201 L 0 1.201 L 62.25 1.201 L 62.25 13.501 L 14.25 13.501 L 14.25 45.601 L 54.3 45.601 L 54.3 57.301 L 14.25 57.301 L 14.25 106.201 Z" id="0" vector-effect="non-scaling-stroke"/>
		<path d="M 134.7 106.201 L 121.2 106.201 L 121.2 83.851 L 76.35 83.851 L 76.35 73.051 L 107.7 0.151 L 119.4 5.101 L 91.05 71.551 L 121.2 71.551 L 121.2 41.701 L 134.7 41.701 L 134.7 71.551 L 147.15 71.551 L 147.15 83.851 L 134.7 83.851 L 134.7 106.201 Z" id="1" vector-effect="non-scaling-stroke"/>
		<path d="M 244.8 101.701 L 231.45 108.001 L 218.4 79.501 Q 214.491 71.09 208.99 66.515 A 24.316 24.316 0 0 0 205.95 64.351 A 29.478 29.478 0 0 0 197.699 61.047 Q 194.012 60.15 189.697 59.926 A 56.771 56.771 0 0 0 186.75 59.851 L 184.5 59.851 L 184.5 106.201 L 170.25 106.201 L 170.25 1.501 A 371.851 371.851 0 0 1 181.795 0.587 A 323.669 323.669 0 0 1 185.475 0.376 A 281.911 281.911 0 0 1 194.95 0.054 A 339.402 339.402 0 0 1 201 0.001 Q 220.2 0.001 229.875 7.801 Q 239.53 15.585 239.55 27.85 A 31.288 31.288 0 0 1 239.55 27.901 A 29.82 29.82 0 0 1 238.574 35.731 A 22.008 22.008 0 0 1 233.025 45.526 A 31.534 31.534 0 0 1 225.639 51.042 Q 220.734 53.748 214.2 55.501 A 35.485 35.485 0 0 1 219.343 58.295 A 30.641 30.641 0 0 1 221.4 59.776 Q 224.353 62.096 227.108 65.866 A 43.941 43.941 0 0 1 227.475 66.376 A 46.667 46.667 0 0 1 229.679 69.818 Q 231.525 72.976 233.4 77.101 L 244.8 101.701 Z M 184.5 12.601 L 184.5 47.851 L 201 47.851 Q 211.8 47.851 218.55 43.051 Q 225.3 38.251 225.3 29.251 A 14.717 14.717 0 0 0 220.39 18.055 A 19.909 19.909 0 0 0 219 16.876 A 20.884 20.884 0 0 0 212.454 13.543 Q 207.581 12.001 201 12.001 A 298.818 298.818 0 0 0 196.449 12.034 Q 194.002 12.071 191.85 12.151 Q 187.8 12.301 184.5 12.601 Z" id="2" vector-effect="non-scaling-stroke"/>
		<path d="M 262.8 105.901 L 262.8 1.501 Q 269.85 0.751 276.6 0.376 Q 283.35 0.001 292.05 0.001 A 72.912 72.912 0 0 1 303.066 0.791 Q 309.81 1.822 315.375 4.201 Q 325.2 8.401 331.575 15.751 Q 337.95 23.101 341.025 32.776 A 66.384 66.384 0 0 1 343.983 49.269 A 77.259 77.259 0 0 1 344.1 53.551 A 67.963 67.963 0 0 1 341.878 71.097 A 62.703 62.703 0 0 1 340.95 74.251 Q 337.8 84.001 331.275 91.426 Q 324.75 98.851 314.625 103.126 A 51.535 51.535 0 0 1 303.506 106.332 Q 298.302 107.251 292.363 107.38 A 90.289 90.289 0 0 1 290.4 107.401 A 280.47 280.47 0 0 1 284.293 107.338 Q 281.272 107.272 278.583 107.137 A 152.251 152.251 0 0 1 275.475 106.951 Q 269.1 106.501 262.8 105.901 Z M 277.05 13.051 L 277.05 94.201 A 65.35 65.35 0 0 0 281.944 94.707 A 73.924 73.924 0 0 0 283.65 94.801 Q 287.1 94.951 290.85 94.951 Q 304.35 94.951 312.9 89.701 Q 321.45 84.451 325.5 75.076 A 48.437 48.437 0 0 0 328.882 62.965 A 63.753 63.753 0 0 0 329.55 53.551 A 50.858 50.858 0 0 0 325.5 33.301 Q 321.45 23.851 313.05 18.076 Q 305.185 12.669 293.244 12.324 A 57.012 57.012 0 0 0 291.6 12.301 A 147.347 147.347 0 0 0 287.437 12.357 A 111.296 111.296 0 0 0 283.65 12.526 Q 280.05 12.751 277.05 13.051 Z" id="3" vector-effect="non-scaling-stroke"/>
		<path d="M 426 106.201 L 373.2 106.201 L 373.2 94.201 L 394.65 94.201 L 394.65 18.451 L 374.55 33.601 L 367.2 23.551 L 398.25 1.201 L 408.15 1.201 L 408.15 94.201 L 426 94.201 L 426 106.201 Z" id="4" vector-effect="non-scaling-stroke"/>
		<path d="M 468.6 106.201 L 455.1 106.201 L 455.1 1.201 L 474 1.201 L 520.35 88.501 L 520.35 1.201 L 533.85 1.201 L 533.85 106.201 L 515.25 106.201 L 468.6 19.501 L 468.6 106.201 Z" id="5" vector-effect="non-scaling-stroke"/>
	</g>
</svg>
